<<<<<<< HEAD
<mxfile host="app.diagrams.net" modified="2021-04-28T16:24:42.963Z" agent="5.0 (Windows NT 10.0; Win64; x64) AppleWebKit/537.36 (KHTML, like Gecko) Chrome/90.0.4430.93 Safari/537.36" etag="ks42SRoOB5yi65yBR-YV" version="14.6.6" type="device"><diagram id="C5RBs43oDa-KdzZeNtuy" name="Page-1">7V1bd6O2Fv41Xqt9sBc3Y/NoJzOZtmlP2pw2M09exCg2HYx8QEns+fVHAgl0AYwx2JkJbdYa2AiBpb2/vb+tCwPzarO7idzt+nfogWBgaN5uYF4PDEO3TBv/QyT7VGJotp5KVpHv0VK54N7/BqhQo9Jn3wOxUBBBGCB/KwqXMAzBEgkyN4rgq1jsCQbiU7fuCiiC+6UbqNIH30PrVDo1Jrn8E/BXa/Zk3XbSKxuXFaa/JF67HnzlROaHgXkVQYjSo83uCgSk9Vi7PPyyfwhuv9o3v/4Z/8/9e/7bf//4Z5hW9vGYW7KfEIEQNa7629enj5/+sf79vL37+OerdjN7/HVIb9Fe3OCZtteNuwH096I9a8T41d8EbojP5k8wRPf0Cm6CuRv4qxAfL/G7gQgLXkCEfNz+M3oBwS2WLtd+4N26e/hMfkGM3OVXdjZfw8j/hqt1A3xJxwJ8OUJUlQxbKHFP7sRiDUsjEOMyd6xZ9Ex068aIllnCIHC3sf+YvDApsnGjlR/OIUJwwyqCz6EHPHqW9XNygiL4NdMccn/NzqCdRloD7DhVpJ1zA+AGoGiPi9CrE9oX1NCGU3r+mmutaVLZmtNYk1maSy1llVWdPe0vbFluuMJtkD3OMMXn6Zb6PN0ueJ5hi49zA9zvoYvAnLRizOsgPuB+aS5KNPMILTUULZ0hFPmPzwi/w2xwZQxm+EXxH3410hzm3I8X28Dd++GKXc0uuUGQXANRzN2Z/WXl0jJERp6o3dHTonpGruf9lB7/zJWYwzhegBeiJ6wWIvqQSoSKiMJemYOZE8EELln57X6F7XEUbyMfgdENVtQtd2dMWnyxcUMMYvmb3hNpJswKb1w/XBDrlSsnstFHKLxTvIQR4BsDG1aMLSSXKBiB1RxxeBCAJ1SKBvHWXeK+uU3KXFu55C+qZ0QE8b1PQWKJa9/zQJhYKnKRmxpz8l7QD1GiiOM5/sP9d6WNxoMxfqErfK7n5/iPFI/QFQyxUePGIM8BuOFfAUGLKhBYo01AD1Xrr8TVw9a/F63qkLXrjlVu7YLdVRjZYzydm85X5+4quH74on+CD/HtcKwrVqb0MQi9GfHJ+CyEiTugTVMMjFVNAzzBb6sNw7XEuKAhmCwCgYv8F9HbV0DhHdEYDgYNZ6Tp4/x/ERRtCVuxxUVLQOvgna1crYyuY0esCHu4FUBKRQ0Qs7gzzXfVmcyIjIbdZUrdpVTUXnc9rFe3kw/b/6x217Or4S9/7D9/mQ5N1cP9nvoDtIZJ+DzjHYbnyficREzcOQH2BQFQTva89bCX7iG8BJrrans5hBs1IzanImA7CcL1yVFWvwzcOPaXouGDnY8+k+ORprHzL6TlRuaEnV/vaFMmJ3t2EuLf8DkpqmkmE6T36tMpE+Q3J2fC3Xcg8nFTEB6R1S/Ljou/UwQ4HFtKCIZJamLxFTarTy/pt6yp5GB0sxn0WTru6amW/2eJ9WrGWZFQJaQs8O4p6aCakh5AtHIrKaWkQ0uTSKk+qYlxll4Rp353rLTYaSuq6vKsVCCTqySrQnlXkmKRaeka4FdeC3xtt2BCvuALCODSR3s+IECJCkrcNIL/4gb2g5ROctx4Q1JmgigimTf5jYhwtFMLjvZCDFF82EcWpXZYCnunk8NpC+Sw8P3U+LQJnVCcbNN2OROdkDNrjemEXFHHTlRXvWgFnfDcFBAkokDBZ/Ho8iQicJ/D5ZoDFx6xsFEuoqQbJGFi75LsCUavbuTJ4kcRyXp8OQe+6DW9encAY7XIXHjWUo+xDAllsUXKYjhOE8pSB+lq8pWqAJmnJ+W85lLsRJfwb9wQSO2JGH6el4uMW9BJpmGETk9kBTMvoGAHea15ScWRBsH0ph54qI8lFdTO7ILVbPod5zN7Mjs4O5kdG6JKmKapej2jQLdNZ3JQj79zLqufGuBzyT/HMXigS3yr3hXSVdne4RSedRGs++7pxTGZj4J0RfHIupx+8CVWkuQo1OzE8amJnkU0ZRH68WPYRXjaHYvQVRqhEl9NopyCDkmCXofOrUNFVPTMStRG3E+5KGn1nI3WHj+bjAWqcMB5nsgImlDOo7r2PNRhaE1aYp1Dy7gwebAVDZzFOC4ic8OqsKenEd3TCJlFDA27ALHe6ZDYkRMQ2hsnSC2mj+SP7a/pEZG8OoZpaD/9LJapHMUsH69sdUgSgxBGjoXMH6hZiVNcF+kv76O8tqO8Ent8MwOaulODKeQ6RnrChyGvPgAt4i0Q5kQnskK1UsbYstEvrWC0rVe2VpXt8qNbLGbgtG3urxZcUNdHcmeP5GxbiuTGWl1FsbRyRfkxIjkWuJVGBi25/Eo87ZHwSCTk1iWe5HarmMppQFgjt4KbZUsOnwKwo0xhfijfUoc3HIEQZxrsLKWSx/KICQvkWU2mXFPHRIJpFh9OAa93cBd1cA4bCMtm79ZNVUx+fP+mZipK/BvnmHpvdJw3aocEWp05IzX70YozypP/TjqHLFtCY48PDAGUrnfpLrt/2XUsuiaBxrCpD3SkSWdDZfJQ1z5QTSn0JO+t+cC6HvAdUDz2qp1RvJ7SteFEnVacaHeUzqyxb8C7oXRTadrpVKqhqTOT6+l6Pbo6j0bcVaT3ZGf3ZJJmDa3eleX6qqaVythc/g69F6rvhcySmbJvhcqZBfmn8uE8MgE1UYReD9rVg9qrwzvTg0tNQClrmDPNfRNJjpy+azodRa6n66ijRj6m44mXb2reJYvCDq71u8wq6WwHrZYSOMoOiOdO4JgFCRwYx0/piuY+5D17yDt0RI0wC0LQ9zrVkr3a4ZB3C6KluOMklSjJmYIZfvmEJbKnyAYKE5CJiMQ8IF6T7Xz7YOrImKGl1E53i/Lb2RKyQTRV0jL9dN7q/jKU/qreRnBBkUCciuPHi6dnbNoBdD0BH7ArAWih4gkZroLRgkCEmA8Gmy2SxXS+Yz/RsX3AuPxER+u4fUcPhPCGMeBHT7PB1PqDp282tDfU0P4tISFTTCnpOG4c20sbyY3PjYwFCW0WuPSh/QVCe9PuQ/tSZa2dzU4m0SZ+uv7C+YIF+YfX0itju485MaZ8gaPKRw4cx2sI0cLDUCXsEiDuX5g8o2ILlT52qI4drHYy+EZn48iWmsI/D9koa5kzkQ1m7SeTDbmirl2qmmqvIBvKKqc8cVC1/0KyJWBRSWVBVQ8ILQNCXYesV00WPg0RWhwP0EeaLm5nnu5I3oxNFO0XaOf7u72l/QJZNx5kGil8XIppZF8xYvP0Gn/KQQosx2cexLLUQQRFaZfP0Uti2em2WHXpsJ2p7Beq0fYJhFjUXsey36L2smjjsPZOLqm9+b7oJ6uvNJo2qbmQB6sQiZ6zYtQRlb+xIdnJhH5QoHRTFHlmm1ZdXp7AdqC4/DpSeXyQ/sJWbdVW86WNHYw2Mn6ArX7YzjOH7a0kejjVDUh2ZDbeOdYSK9Llijp2A7aaCPU3JNxTFQx35q37CAKW0OHCSU7PDmaeNjgmJTdSHaHf06SVDbJR+iahYmonJ3T2SWGgfRwxrN6Hl5lpXYPj1vJM6pv3BZbx1M4ov3XLNSfGyOQ+SCNObTIsc2QZ3OdqpK1ZuzZrlfR+x2Zdsj7vVLPGp/lXcdOWzz8ubH74Pw==</diagram></mxfile>
=======
<mxfile host="app.diagrams.net" modified="2021-04-28T16:24:47.256Z" agent="5.0 (Windows NT 10.0; Win64; x64) AppleWebKit/537.36 (KHTML, like Gecko) Chrome/90.0.4430.93 Safari/537.36" etag="kJhJM1GS1WsfiB-yMxco" version="14.6.6" type="github">
  <diagram id="C5RBs43oDa-KdzZeNtuy" name="Page-1">
    <mxGraphModel dx="1436" dy="2061" grid="1" gridSize="10" guides="1" tooltips="1" connect="1" arrows="1" fold="1" page="1" pageScale="1" pageWidth="827" pageHeight="1169" math="0" shadow="0">
      <root>
        <mxCell id="WIyWlLk6GJQsqaUBKTNV-0" />
        <mxCell id="WIyWlLk6GJQsqaUBKTNV-1" parent="WIyWlLk6GJQsqaUBKTNV-0" />
        <mxCell id="zkfFHV4jXpPFQw0GAbJ--0" value="Game" style="swimlane;fontStyle=2;align=center;verticalAlign=top;childLayout=stackLayout;horizontal=1;startSize=26;horizontalStack=0;resizeParent=1;resizeLast=0;collapsible=1;marginBottom=0;rounded=0;shadow=0;strokeWidth=1;" parent="WIyWlLk6GJQsqaUBKTNV-1" vertex="1">
          <mxGeometry x="70" y="-80" width="330" height="310" as="geometry">
            <mxRectangle x="230" y="140" width="160" height="26" as="alternateBounds" />
          </mxGeometry>
        </mxCell>
        <mxCell id="zkfFHV4jXpPFQw0GAbJ--2" value="Attributs:  &#xa;is_playing &#xa;all_players     &#xa;player = Player&#xa;all_players.add(player)&#xa;Boss_event = BossEvent&#xa;all_astéroides = pygame.sprite.Group&#xa;sound_manager = Soundmanager&#xa;main_font = pygame.font.Font&#xa;score&#xa;pressed&#xa;" style="text;align=left;verticalAlign=top;spacingLeft=4;spacingRight=4;overflow=hidden;rotatable=0;points=[[0,0.5],[1,0.5]];portConstraint=eastwest;rounded=0;shadow=0;html=0;" parent="zkfFHV4jXpPFQw0GAbJ--0" vertex="1">
          <mxGeometry y="26" width="330" height="194" as="geometry" />
        </mxCell>
        <mxCell id="bs8B39k9PClDWY1HoWsL-51" value="" style="endArrow=none;html=1;" parent="zkfFHV4jXpPFQw0GAbJ--0" edge="1">
          <mxGeometry width="50" height="50" relative="1" as="geometry">
            <mxPoint x="229.0151515151515" y="160" as="sourcePoint" />
            <mxPoint x="230" y="159" as="targetPoint" />
          </mxGeometry>
        </mxCell>
        <mxCell id="bs8B39k9PClDWY1HoWsL-53" value="" style="endArrow=none;html=1;" parent="zkfFHV4jXpPFQw0GAbJ--0" edge="1">
          <mxGeometry width="50" height="50" relative="1" as="geometry">
            <mxPoint y="220" as="sourcePoint" />
            <mxPoint x="330" y="220" as="targetPoint" />
          </mxGeometry>
        </mxCell>
        <mxCell id="WhgL7EpOgxDAC-INyXY8-32" value="Méthodes:&#xa;addscore&#xa;start&#xa;game_over&#xa;update&#xa;" style="text;align=left;verticalAlign=top;spacingLeft=4;spacingRight=4;overflow=hidden;rotatable=0;points=[[0,0.5],[1,0.5]];portConstraint=eastwest;rounded=0;shadow=0;html=0;" vertex="1" parent="zkfFHV4jXpPFQw0GAbJ--0">
          <mxGeometry y="220" width="330" height="90" as="geometry" />
        </mxCell>
        <mxCell id="bs8B39k9PClDWY1HoWsL-17" value="" style="endArrow=classic;html=1;exitX=1.001;exitY=0.371;exitDx=0;exitDy=0;entryX=0.003;entryY=0.188;entryDx=0;entryDy=0;entryPerimeter=0;exitPerimeter=0;" parent="WIyWlLk6GJQsqaUBKTNV-1" source="zkfFHV4jXpPFQw0GAbJ--2" edge="1" target="WhgL7EpOgxDAC-INyXY8-18">
          <mxGeometry width="50" height="50" relative="1" as="geometry">
            <mxPoint x="480" y="113" as="sourcePoint" />
            <mxPoint x="411.08000000000004" y="102" as="targetPoint" />
          </mxGeometry>
        </mxCell>
        <mxCell id="WhgL7EpOgxDAC-INyXY8-0" value="Player" style="swimlane;fontStyle=2;align=center;verticalAlign=top;childLayout=stackLayout;horizontal=1;startSize=26;horizontalStack=0;resizeParent=1;resizeLast=0;collapsible=1;marginBottom=0;rounded=0;shadow=0;strokeWidth=1;" vertex="1" parent="WIyWlLk6GJQsqaUBKTNV-1">
          <mxGeometry x="-400" y="-170" width="330" height="414" as="geometry">
            <mxRectangle x="230" y="140" width="160" height="26" as="alternateBounds" />
          </mxGeometry>
        </mxCell>
        <mxCell id="WhgL7EpOgxDAC-INyXY8-3" value="attributs: &#xa;game = Game &#xa;health&#xa;max_health &#xa;velocity&#xa;attack&#xa;all_projectiles &#xa;image &#xa;rect &#xa;rect.x &#xa;rect.y&#xa;&#xa;&#xa;" style="text;align=left;verticalAlign=top;spacingLeft=4;spacingRight=4;overflow=hidden;rotatable=0;points=[[0,0.5],[1,0.5]];portConstraint=eastwest;rounded=0;shadow=0;html=0;" vertex="1" parent="WhgL7EpOgxDAC-INyXY8-0">
          <mxGeometry y="26" width="330" height="184" as="geometry" />
        </mxCell>
        <mxCell id="WhgL7EpOgxDAC-INyXY8-2" value="" style="endArrow=none;html=1;" edge="1" parent="WhgL7EpOgxDAC-INyXY8-0">
          <mxGeometry width="50" height="50" relative="1" as="geometry">
            <mxPoint y="210" as="sourcePoint" />
            <mxPoint x="330" y="210" as="targetPoint" />
          </mxGeometry>
        </mxCell>
        <mxCell id="WhgL7EpOgxDAC-INyXY8-10" value="Méthodes:&#xa;damage&#xa;update_health_bar&#xa;launch_projectile&#xa;move_right&#xa;move_left&#xa;move_forward&#xa;move_back&#xa;&#xa;&#xa;" style="text;align=left;verticalAlign=top;spacingLeft=4;spacingRight=4;overflow=hidden;rotatable=0;points=[[0,0.5],[1,0.5]];portConstraint=eastwest;rounded=0;shadow=0;html=0;" vertex="1" parent="WhgL7EpOgxDAC-INyXY8-0">
          <mxGeometry y="210" width="330" height="184" as="geometry" />
        </mxCell>
        <mxCell id="WhgL7EpOgxDAC-INyXY8-4" value="" style="endArrow=classic;html=1;exitX=1;exitY=0;exitDx=0;exitDy=0;entryX=-0.006;entryY=0.299;entryDx=0;entryDy=0;entryPerimeter=0;" edge="1" parent="WIyWlLk6GJQsqaUBKTNV-1" source="WhgL7EpOgxDAC-INyXY8-0" target="zkfFHV4jXpPFQw0GAbJ--2">
          <mxGeometry width="50" height="50" relative="1" as="geometry">
            <mxPoint x="10" y="250" as="sourcePoint" />
            <mxPoint x="67" y="-2" as="targetPoint" />
          </mxGeometry>
        </mxCell>
        <mxCell id="WhgL7EpOgxDAC-INyXY8-5" value="" style="endArrow=classic;html=1;entryX=1.007;entryY=0.293;entryDx=0;entryDy=0;entryPerimeter=0;" edge="1" parent="WIyWlLk6GJQsqaUBKTNV-1" target="WhgL7EpOgxDAC-INyXY8-3">
          <mxGeometry width="50" height="50" relative="1" as="geometry">
            <mxPoint x="70" y="110" as="sourcePoint" />
            <mxPoint x="-150" y="200" as="targetPoint" />
          </mxGeometry>
        </mxCell>
        <mxCell id="WhgL7EpOgxDAC-INyXY8-11" value="Projectile" style="swimlane;fontStyle=2;align=center;verticalAlign=top;childLayout=stackLayout;horizontal=1;startSize=26;horizontalStack=0;resizeParent=1;resizeLast=0;collapsible=1;marginBottom=0;rounded=0;shadow=0;strokeWidth=1;" vertex="1" parent="WIyWlLk6GJQsqaUBKTNV-1">
          <mxGeometry x="-520" y="333" width="320" height="397" as="geometry">
            <mxRectangle x="230" y="140" width="160" height="26" as="alternateBounds" />
          </mxGeometry>
        </mxCell>
        <mxCell id="WhgL7EpOgxDAC-INyXY8-12" value="" style="endArrow=none;html=1;entryX=0.992;entryY=-0.001;entryDx=0;entryDy=0;entryPerimeter=0;" edge="1" parent="WhgL7EpOgxDAC-INyXY8-11" target="WhgL7EpOgxDAC-INyXY8-14">
          <mxGeometry width="50" height="50" relative="1" as="geometry">
            <mxPoint y="210" as="sourcePoint" />
            <mxPoint x="330" y="210" as="targetPoint" />
          </mxGeometry>
        </mxCell>
        <mxCell id="WhgL7EpOgxDAC-INyXY8-13" value="attributs: &#xa;velocity&#xa;player = Player &#xa;image&#xa;rect&#xa;rect.x&#xa;rect.y&#xa;&#xa;&#xa;&#xa;" style="text;align=left;verticalAlign=top;spacingLeft=4;spacingRight=4;overflow=hidden;rotatable=0;points=[[0,0.5],[1,0.5]];portConstraint=eastwest;rounded=0;shadow=0;html=0;" vertex="1" parent="WhgL7EpOgxDAC-INyXY8-11">
          <mxGeometry y="26" width="320" height="184" as="geometry" />
        </mxCell>
        <mxCell id="WhgL7EpOgxDAC-INyXY8-14" value="Méthodes: &#xa;move&#xa;remove&#xa;&#xa;&#xa;&#xa;" style="text;align=left;verticalAlign=top;spacingLeft=4;spacingRight=4;overflow=hidden;rotatable=0;points=[[0,0.5],[1,0.5]];portConstraint=eastwest;rounded=0;shadow=0;html=0;" vertex="1" parent="WhgL7EpOgxDAC-INyXY8-11">
          <mxGeometry y="210" width="320" height="184" as="geometry" />
        </mxCell>
        <mxCell id="WhgL7EpOgxDAC-INyXY8-15" value="" style="endArrow=classic;html=1;exitX=0.5;exitY=1;exitDx=0;exitDy=0;entryX=0.75;entryY=0;entryDx=0;entryDy=0;" edge="1" parent="WIyWlLk6GJQsqaUBKTNV-1" source="WhgL7EpOgxDAC-INyXY8-0" target="WhgL7EpOgxDAC-INyXY8-11">
          <mxGeometry width="50" height="50" relative="1" as="geometry">
            <mxPoint x="-470" y="250" as="sourcePoint" />
            <mxPoint x="-420" y="200" as="targetPoint" />
          </mxGeometry>
        </mxCell>
        <mxCell id="WhgL7EpOgxDAC-INyXY8-16" value="Asteroide&#xa;" style="swimlane;fontStyle=2;align=center;verticalAlign=top;childLayout=stackLayout;horizontal=1;startSize=26;horizontalStack=0;resizeParent=1;resizeLast=0;collapsible=1;marginBottom=0;rounded=0;shadow=0;strokeWidth=1;" vertex="1" parent="WIyWlLk6GJQsqaUBKTNV-1">
          <mxGeometry x="520" y="-260" width="330" height="414" as="geometry">
            <mxRectangle x="230" y="140" width="160" height="26" as="alternateBounds" />
          </mxGeometry>
        </mxCell>
        <mxCell id="WhgL7EpOgxDAC-INyXY8-17" value="" style="endArrow=none;html=1;" edge="1" parent="WhgL7EpOgxDAC-INyXY8-16">
          <mxGeometry width="50" height="50" relative="1" as="geometry">
            <mxPoint y="210" as="sourcePoint" />
            <mxPoint x="330" y="210" as="targetPoint" />
          </mxGeometry>
        </mxCell>
        <mxCell id="WhgL7EpOgxDAC-INyXY8-18" value="attributs: &#xa;game = Game () &#xa;health&#xa;max_health&#xa;attack&#xa;image &#xa;rect &#xa;rect.x &#xa;rect.y&#xa;origin_image&#xa;angle&#xa;score_value&#xa;&#xa;&#xa;" style="text;align=left;verticalAlign=top;spacingLeft=4;spacingRight=4;overflow=hidden;rotatable=0;points=[[0,0.5],[1,0.5]];portConstraint=eastwest;rounded=0;shadow=0;html=0;" vertex="1" parent="WhgL7EpOgxDAC-INyXY8-16">
          <mxGeometry y="26" width="330" height="184" as="geometry" />
        </mxCell>
        <mxCell id="WhgL7EpOgxDAC-INyXY8-19" value="Méthodes:&#xa;rotation&#xa;set_speed&#xa;set_score_value&#xa;damage&#xa;forward update_health_bar" style="text;align=left;verticalAlign=top;spacingLeft=4;spacingRight=4;overflow=hidden;rotatable=0;points=[[0,0.5],[1,0.5]];portConstraint=eastwest;rounded=0;shadow=0;html=0;" vertex="1" parent="WhgL7EpOgxDAC-INyXY8-16">
          <mxGeometry y="210" width="330" height="184" as="geometry" />
        </mxCell>
        <mxCell id="WhgL7EpOgxDAC-INyXY8-20" value="Big_Asteroide" style="swimlane;fontStyle=2;align=center;verticalAlign=top;childLayout=stackLayout;horizontal=1;startSize=26;horizontalStack=0;resizeParent=1;resizeLast=0;collapsible=1;marginBottom=0;rounded=0;shadow=0;strokeWidth=1;" vertex="1" parent="WIyWlLk6GJQsqaUBKTNV-1">
          <mxGeometry x="660" y="-500" width="330" height="140" as="geometry">
            <mxRectangle x="230" y="140" width="160" height="26" as="alternateBounds" />
          </mxGeometry>
        </mxCell>
        <mxCell id="WhgL7EpOgxDAC-INyXY8-22" value="attributs:&#xa;health&#xa;max_health&#xa;attack&#xa;image&#xa;set_speed&#xa;" style="text;align=left;verticalAlign=top;spacingLeft=4;spacingRight=4;overflow=hidden;rotatable=0;points=[[0,0.5],[1,0.5]];portConstraint=eastwest;rounded=0;shadow=0;html=0;" vertex="1" parent="WhgL7EpOgxDAC-INyXY8-20">
          <mxGeometry y="26" width="330" height="114" as="geometry" />
        </mxCell>
        <mxCell id="WhgL7EpOgxDAC-INyXY8-25" value="" style="shape=flexArrow;endArrow=classic;html=1;" edge="1" parent="WIyWlLk6GJQsqaUBKTNV-1">
          <mxGeometry width="50" height="50" relative="1" as="geometry">
            <mxPoint x="720" y="-260" as="sourcePoint" />
            <mxPoint x="718" y="-360" as="targetPoint" />
          </mxGeometry>
        </mxCell>
        <mxCell id="WhgL7EpOgxDAC-INyXY8-26" value="Med_Asteroide" style="swimlane;fontStyle=2;align=center;verticalAlign=top;childLayout=stackLayout;horizontal=1;startSize=26;horizontalStack=0;resizeParent=1;resizeLast=0;collapsible=1;marginBottom=0;rounded=0;shadow=0;strokeWidth=1;" vertex="1" parent="WIyWlLk6GJQsqaUBKTNV-1">
          <mxGeometry x="911" y="-160" width="330" height="70" as="geometry">
            <mxRectangle x="230" y="140" width="160" height="26" as="alternateBounds" />
          </mxGeometry>
        </mxCell>
        <mxCell id="WhgL7EpOgxDAC-INyXY8-27" value="attributs:&#xa;set_speed" style="text;align=left;verticalAlign=top;spacingLeft=4;spacingRight=4;overflow=hidden;rotatable=0;points=[[0,0.5],[1,0.5]];portConstraint=eastwest;rounded=0;shadow=0;html=0;" vertex="1" parent="WhgL7EpOgxDAC-INyXY8-26">
          <mxGeometry y="26" width="330" height="44" as="geometry" />
        </mxCell>
        <mxCell id="WhgL7EpOgxDAC-INyXY8-28" value="" style="shape=flexArrow;endArrow=classic;html=1;exitX=0.999;exitY=0.651;exitDx=0;exitDy=0;exitPerimeter=0;" edge="1" parent="WIyWlLk6GJQsqaUBKTNV-1" source="WhgL7EpOgxDAC-INyXY8-18">
          <mxGeometry width="50" height="50" relative="1" as="geometry">
            <mxPoint x="1030" y="-60" as="sourcePoint" />
            <mxPoint x="910" y="-110" as="targetPoint" />
          </mxGeometry>
        </mxCell>
        <mxCell id="WhgL7EpOgxDAC-INyXY8-29" value="Big_Asteroide" style="swimlane;fontStyle=2;align=center;verticalAlign=top;childLayout=stackLayout;horizontal=1;startSize=26;horizontalStack=0;resizeParent=1;resizeLast=0;collapsible=1;marginBottom=0;rounded=0;shadow=0;strokeWidth=1;" vertex="1" parent="WIyWlLk6GJQsqaUBKTNV-1">
          <mxGeometry x="911" y="60" width="330" height="140" as="geometry">
            <mxRectangle x="230" y="140" width="160" height="26" as="alternateBounds" />
          </mxGeometry>
        </mxCell>
        <mxCell id="WhgL7EpOgxDAC-INyXY8-30" value="attributs:&#xa;health&#xa;max_health&#xa;attack&#xa;set_speed&#xa;" style="text;align=left;verticalAlign=top;spacingLeft=4;spacingRight=4;overflow=hidden;rotatable=0;points=[[0,0.5],[1,0.5]];portConstraint=eastwest;rounded=0;shadow=0;html=0;" vertex="1" parent="WhgL7EpOgxDAC-INyXY8-29">
          <mxGeometry y="26" width="330" height="114" as="geometry" />
        </mxCell>
        <mxCell id="WhgL7EpOgxDAC-INyXY8-31" value="" style="shape=flexArrow;endArrow=classic;html=1;" edge="1" parent="WIyWlLk6GJQsqaUBKTNV-1">
          <mxGeometry width="50" height="50" relative="1" as="geometry">
            <mxPoint x="850" y="81" as="sourcePoint" />
            <mxPoint x="910" y="81" as="targetPoint" />
          </mxGeometry>
        </mxCell>
        <mxCell id="WhgL7EpOgxDAC-INyXY8-34" value="Soundmanager" style="swimlane;fontStyle=2;align=center;verticalAlign=top;childLayout=stackLayout;horizontal=1;startSize=26;horizontalStack=0;resizeParent=1;resizeLast=0;collapsible=1;marginBottom=0;rounded=0;shadow=0;strokeWidth=1;" vertex="1" parent="WIyWlLk6GJQsqaUBKTNV-1">
          <mxGeometry x="50" y="-460" width="330" height="140" as="geometry">
            <mxRectangle x="230" y="140" width="160" height="26" as="alternateBounds" />
          </mxGeometry>
        </mxCell>
        <mxCell id="WhgL7EpOgxDAC-INyXY8-35" value="attributs:&#xa;sounds" style="text;align=left;verticalAlign=top;spacingLeft=4;spacingRight=4;overflow=hidden;rotatable=0;points=[[0,0.5],[1,0.5]];portConstraint=eastwest;rounded=0;shadow=0;html=0;" vertex="1" parent="WhgL7EpOgxDAC-INyXY8-34">
          <mxGeometry y="26" width="330" height="44" as="geometry" />
        </mxCell>
        <mxCell id="WhgL7EpOgxDAC-INyXY8-36" value="Méthodes:&#xa;playsound" style="text;align=left;verticalAlign=top;spacingLeft=4;spacingRight=4;overflow=hidden;rotatable=0;points=[[0,0.5],[1,0.5]];portConstraint=eastwest;rounded=0;shadow=0;html=0;" vertex="1" parent="WhgL7EpOgxDAC-INyXY8-34">
          <mxGeometry y="70" width="330" height="44" as="geometry" />
        </mxCell>
        <mxCell id="WhgL7EpOgxDAC-INyXY8-37" value="" style="endArrow=none;html=1;" edge="1" parent="WhgL7EpOgxDAC-INyXY8-34">
          <mxGeometry width="50" height="50" relative="1" as="geometry">
            <mxPoint x="-1" y="70" as="sourcePoint" />
            <mxPoint x="330" y="70" as="targetPoint" />
          </mxGeometry>
        </mxCell>
        <mxCell id="WhgL7EpOgxDAC-INyXY8-38" value="" style="endArrow=classic;html=1;exitX=0.5;exitY=1;exitDx=0;exitDy=0;entryX=0.5;entryY=0;entryDx=0;entryDy=0;" edge="1" parent="WIyWlLk6GJQsqaUBKTNV-1" source="WhgL7EpOgxDAC-INyXY8-34" target="zkfFHV4jXpPFQw0GAbJ--0">
          <mxGeometry width="50" height="50" relative="1" as="geometry">
            <mxPoint x="220" y="-60" as="sourcePoint" />
            <mxPoint x="270" y="-110" as="targetPoint" />
          </mxGeometry>
        </mxCell>
        <mxCell id="WhgL7EpOgxDAC-INyXY8-39" value="Bossfight" style="swimlane;fontStyle=2;align=center;verticalAlign=top;childLayout=stackLayout;horizontal=1;startSize=26;horizontalStack=0;resizeParent=1;resizeLast=0;collapsible=1;marginBottom=0;rounded=0;shadow=0;strokeWidth=1;" vertex="1" parent="WIyWlLk6GJQsqaUBKTNV-1">
          <mxGeometry x="-90" y="340" width="330" height="414" as="geometry">
            <mxRectangle x="230" y="140" width="160" height="26" as="alternateBounds" />
          </mxGeometry>
        </mxCell>
        <mxCell id="WhgL7EpOgxDAC-INyXY8-40" value="attributs:&#xa;percent&#xa;percent_speed&#xa;game = Game&#xa;fall_mode&#xa;all_spaceships" style="text;align=left;verticalAlign=top;spacingLeft=4;spacingRight=4;overflow=hidden;rotatable=0;points=[[0,0.5],[1,0.5]];portConstraint=eastwest;rounded=0;shadow=0;html=0;" vertex="1" parent="WhgL7EpOgxDAC-INyXY8-39">
          <mxGeometry y="26" width="330" height="184" as="geometry" />
        </mxCell>
        <mxCell id="WhgL7EpOgxDAC-INyXY8-41" value="" style="endArrow=none;html=1;" edge="1" parent="WhgL7EpOgxDAC-INyXY8-39">
          <mxGeometry width="50" height="50" relative="1" as="geometry">
            <mxPoint y="210" as="sourcePoint" />
            <mxPoint x="330" y="210" as="targetPoint" />
          </mxGeometry>
        </mxCell>
        <mxCell id="WhgL7EpOgxDAC-INyXY8-42" value="Méthodes:&#xa;add_percentage&#xa;is_full_loaded&#xa;reset_percent&#xa;meteor_fall&#xa;attempt_fall&#xa;update_bar" style="text;align=left;verticalAlign=top;spacingLeft=4;spacingRight=4;overflow=hidden;rotatable=0;points=[[0,0.5],[1,0.5]];portConstraint=eastwest;rounded=0;shadow=0;html=0;" vertex="1" parent="WhgL7EpOgxDAC-INyXY8-39">
          <mxGeometry y="210" width="330" height="184" as="geometry" />
        </mxCell>
        <mxCell id="WhgL7EpOgxDAC-INyXY8-43" value="" style="endArrow=classic;html=1;exitX=0.22;exitY=0.99;exitDx=0;exitDy=0;exitPerimeter=0;entryX=0.5;entryY=0;entryDx=0;entryDy=0;" edge="1" parent="WIyWlLk6GJQsqaUBKTNV-1" source="WhgL7EpOgxDAC-INyXY8-32" target="WhgL7EpOgxDAC-INyXY8-39">
          <mxGeometry width="50" height="50" relative="1" as="geometry">
            <mxPoint x="150" y="560" as="sourcePoint" />
            <mxPoint x="200" y="510" as="targetPoint" />
          </mxGeometry>
        </mxCell>
        <mxCell id="WhgL7EpOgxDAC-INyXY8-44" value="Spaceship" style="swimlane;fontStyle=2;align=center;verticalAlign=top;childLayout=stackLayout;horizontal=1;startSize=26;horizontalStack=0;resizeParent=1;resizeLast=0;collapsible=1;marginBottom=0;rounded=0;shadow=0;strokeWidth=1;" vertex="1" parent="WIyWlLk6GJQsqaUBKTNV-1">
          <mxGeometry x="360" y="340" width="330" height="414" as="geometry">
            <mxRectangle x="230" y="140" width="160" height="26" as="alternateBounds" />
          </mxGeometry>
        </mxCell>
        <mxCell id="WhgL7EpOgxDAC-INyXY8-45" value="attributs:&#xa;image_load&#xa;image&#xa;rect&#xa;velocity&#xa;rect.x&#xa;rect.y&#xa;attack&#xa;bossfight = Bossfight&#xa;health&#xa;max_health&#xa;shoot_delay&#xa;projectiles = Projectile" style="text;align=left;verticalAlign=top;spacingLeft=4;spacingRight=4;overflow=hidden;rotatable=0;points=[[0,0.5],[1,0.5]];portConstraint=eastwest;rounded=0;shadow=0;html=0;" vertex="1" parent="WhgL7EpOgxDAC-INyXY8-44">
          <mxGeometry y="26" width="330" height="214" as="geometry" />
        </mxCell>
        <mxCell id="WhgL7EpOgxDAC-INyXY8-46" value="" style="endArrow=none;html=1;" edge="1" parent="WhgL7EpOgxDAC-INyXY8-44">
          <mxGeometry width="50" height="50" relative="1" as="geometry">
            <mxPoint y="245" as="sourcePoint" />
            <mxPoint x="330" y="245" as="targetPoint" />
          </mxGeometry>
        </mxCell>
        <mxCell id="WhgL7EpOgxDAC-INyXY8-47" value="Méthodes:&#xa;update_health_bar_spaceship&#xa;remove&#xa;move_spaceship&#xa;damage&#xa;" style="text;align=left;verticalAlign=top;spacingLeft=4;spacingRight=4;overflow=hidden;rotatable=0;points=[[0,0.5],[1,0.5]];portConstraint=eastwest;rounded=0;shadow=0;html=0;" vertex="1" parent="WhgL7EpOgxDAC-INyXY8-44">
          <mxGeometry y="240" width="330" height="170" as="geometry" />
        </mxCell>
        <mxCell id="WhgL7EpOgxDAC-INyXY8-48" value="" style="endArrow=classic;html=1;exitX=1.011;exitY=0.88;exitDx=0;exitDy=0;exitPerimeter=0;entryX=-0.006;entryY=0.607;entryDx=0;entryDy=0;entryPerimeter=0;" edge="1" parent="WIyWlLk6GJQsqaUBKTNV-1" source="WhgL7EpOgxDAC-INyXY8-40" target="WhgL7EpOgxDAC-INyXY8-45">
          <mxGeometry width="50" height="50" relative="1" as="geometry">
            <mxPoint x="310" y="620" as="sourcePoint" />
            <mxPoint x="360" y="570" as="targetPoint" />
          </mxGeometry>
        </mxCell>
        <mxCell id="WhgL7EpOgxDAC-INyXY8-49" value="" style="curved=1;endArrow=classic;html=1;exitX=0.688;exitY=1.016;exitDx=0;exitDy=0;exitPerimeter=0;entryX=0;entryY=0.946;entryDx=0;entryDy=0;entryPerimeter=0;" edge="1" parent="WIyWlLk6GJQsqaUBKTNV-1" source="WhgL7EpOgxDAC-INyXY8-14" target="WhgL7EpOgxDAC-INyXY8-47">
          <mxGeometry width="50" height="50" relative="1" as="geometry">
            <mxPoint x="-170" y="620" as="sourcePoint" />
            <mxPoint x="320" y="760" as="targetPoint" />
            <Array as="points">
              <mxPoint x="-260" y="780" />
              <mxPoint x="-50" y="800" />
              <mxPoint x="10" y="800" />
              <mxPoint x="260" y="800" />
            </Array>
          </mxGeometry>
        </mxCell>
        <mxCell id="WhgL7EpOgxDAC-INyXY8-62" value="" style="endArrow=classic;html=1;exitX=0.25;exitY=1;exitDx=0;exitDy=0;entryX=0.75;entryY=0;entryDx=0;entryDy=0;" edge="1" parent="WIyWlLk6GJQsqaUBKTNV-1" source="WhgL7EpOgxDAC-INyXY8-16" target="WhgL7EpOgxDAC-INyXY8-44">
          <mxGeometry relative="1" as="geometry">
            <mxPoint x="370" y="350" as="sourcePoint" />
            <mxPoint x="640" y="150" as="targetPoint" />
          </mxGeometry>
        </mxCell>
        <mxCell id="WhgL7EpOgxDAC-INyXY8-63" value="import" style="edgeLabel;resizable=0;html=1;align=center;verticalAlign=middle;" connectable="0" vertex="1" parent="WhgL7EpOgxDAC-INyXY8-62">
          <mxGeometry relative="1" as="geometry" />
        </mxCell>
        <mxCell id="WhgL7EpOgxDAC-INyXY8-66" value="" style="endArrow=classic;html=1;entryX=0.25;entryY=0;entryDx=0;entryDy=0;exitX=0.97;exitY=1;exitDx=0;exitDy=0;exitPerimeter=0;" edge="1" parent="WIyWlLk6GJQsqaUBKTNV-1" source="WhgL7EpOgxDAC-INyXY8-32" target="WhgL7EpOgxDAC-INyXY8-44">
          <mxGeometry relative="1" as="geometry">
            <mxPoint x="370" y="350" as="sourcePoint" />
            <mxPoint x="372.3800000000001" y="243.42000000000007" as="targetPoint" />
          </mxGeometry>
        </mxCell>
        <mxCell id="WhgL7EpOgxDAC-INyXY8-67" value="import" style="edgeLabel;resizable=0;html=1;align=center;verticalAlign=middle;" connectable="0" vertex="1" parent="WhgL7EpOgxDAC-INyXY8-66">
          <mxGeometry relative="1" as="geometry" />
        </mxCell>
      </root>
    </mxGraphModel>
  </diagram>
</mxfile>
>>>>>>> 7393d73dd27e2ac32b8086c2dab549a9ed9ddda5
